<?xml version="1.0" encoding="UTF-8"?><svg id="Layer_2" xmlns="http://www.w3.org/2000/svg" viewBox="0 0 336.32 281.5"><defs><style>.cls-1{fill:#fff;}.cls-2{fill:#4142f5;}</style></defs><g id="Layer_1-2"><path class="cls-2" d="M330.86,230.86c-3.1,10.87-5.91,21.81-8.77,32.75-1.18,4.49-2.22,9.02-3.14,13.57-.14,.68-.15,1.26-.05,1.76-.35,.79-.5,1.68-.45,2.56H0c.33-1.06,.59-2.14,.78-3.25,.48-.67,.83-1.38,.95-1.98,1.9-9.79,4.19-19.65,4.65-29.56,.79-16.94-.1-33.96,.48-50.92,.83-24.25,1.5-48.36,6.65-72.46,4.26-19.95,10.18-39.3,15.86-58.74,4.41-15.1,11.09-29.55,16.95-44.22,1.71-4.28,3.76-8.51,6.21-12.41,3.48-5.57,9.21-6.21,13.79-1.41,2.95,3.09,5.4,6.78,7.51,10.52,5.57,9.86,10.67,19.98,16.37,29.76,1.09,1.87,4.1,3.75,6.19,3.72,17.98-.3,35.95-1.34,53.93-1.56,22.64-.28,45.3-.28,67.93,.16,10.8,.21,21.58,1.72,32.37,2.58,3.03,.24,6.05,.4,7.62-3.18,2.07-4.72,4.32-9.37,6.45-14.08,4.32-9.55,8.39-19.23,12.99-28.64,3.35-6.85,8.36-7.74,13.32-2.27,3.17,3.49,5.73,7.74,7.72,12.05,9.96,21.53,15.76,44.43,21.53,67.31,3.78,15.01,7.93,30.04,10.11,45.31,4.88,34.11,10.28,68.37,.5,102.63Z"/><path class="cls-1" d="M288,161.51c-4.59,19.38-17.41,33.6-33.25,34.53-21.07,1.23-39.49-21.4-41.22-50.5-.8-14.05,2.44-27.07,8.38-36.9,6.35-10.51,15.77-17.41,26.67-18.06,21.01-1.22,39.49,21.4,41.15,50.51,.42,7.16-.19,14.09-1.73,20.42Z"/><path class="cls-1" d="M110.82,194.57c-21.03,1.2-39.48-21.39-41.15-50.5-.11-1.71-.15-3.41-.09-5.04,.21-26.88,15.32-48.76,35.08-49.92,13.57-.79,26.04,8.31,33.63,22.71,4.22,7.9,6.99,17.46,7.59,27.79,1.67,29.11-13.99,53.73-35.06,54.96Z"/><path class="cls-2" d="M110.42,179.91c-10.58,.74-20.34-15.72-21.8-36.74-1.46-21.03,5.94-38.68,16.52-39.41,10.58-.74,20.34,15.72,21.8,36.75,1.46,21.02-5.94,38.68-16.52,39.4Z"/><path class="cls-2" d="M254.27,181.39c-10.58,.74-20.34-15.72-21.8-36.75-1.46-21.03,5.94-38.68,16.52-39.41,10.59-.74,20.34,15.73,21.8,36.75,1.46,21.03-5.94,38.68-16.52,39.41Z"/></g></svg>